# xmcd CD database file
#
# Track frame offsets:
#	150
#	15718
#	27039
#	44970
#	56949
#	75283
#	85914
#	103932
#	126472
#	147029
#	160327
#	177484
#	200506
#
# Disc length: 2928 seconds
#
# Revision: 0
# Processed by: cddbd v1.5.1PL0 Copyright (c) Steve Scherf et al.
# Submitted via: CDex 1.51
#
DISCID=b70b6e0d
DTITLE=Ray Stubbs and His Amazing One Man Blues Band - Down and Out
DYEAR=1986
DGENRE=Blues
TTITLE0=Backwater Blues (Leadbelly)
TTITLE1=Daddy Rooster Blues (Blind Willie McTell)
TTITLE2=Death's Black Train
TTITLE3=Matchbox Blues (Blind Lemon Jefferson)
TTITLE4=San Francisco Bay Blues (Jessie Fuller)
TTITLE5=Keep Your Hands Off Her (Big Bill Broonzy)
TTITLE6=Can't Judge A Book (Bo Diddley)
TTITLE7=Down and Out (Bessie Smith)
TTITLE8=Rock Me (Muddy Waters)
TTITLE9=King Edward Blues (Blind Willie McTell)
TTITLE10=The Dirty Dozen (Speckled Red)
TTITLE11=Highway 61 (Mississippi Fred McDowell)
TTITLE12=Make Arrangements (Bo Carter)
EXTD=YEAR: 1986
EXTT0=
EXTT1=
EXTT2=
EXTT3=
EXTT4=
EXTT5=
EXTT6=
EXTT7=
EXTT8=
EXTT9=
EXTT10=
EXTT11=
EXTT12=
PLAYORDER=
